#!OML:ASF I:\Actors\actors\Patient Classification 2\Patient 1\Session 1\actor1.ASF
:FULLY-SPECIFIED
:DEGREES
423
root -0.85694 18.6475 6.10758 10.7656 -2.35001 -4.10336
lowerback 11.7886 0.263091 4.84078
upperback 0.388776 1.14753 2.3139
thorax -6.16921 0.453947 -0.485913
lowerneck -7.71269 -1.27911 4.12
upperneck 13.5182 -0.791885 -10.6047
head 5.25059 -0.895451 -4.06638
rclavicle 7.15625e-015 2.38542e-015
rhumerus -89.2396 17.0764 -95.4883
rradius 109.081
rwrist -2.73969
rhand 0.474494 -24.1023
rfingers 7.12502
rthumb 26.0448 -52.337
lclavicle 7.15625e-015 2.38542e-015
lhumerus -85.7591 -21.0512 106.809
lradius 106.24
lwrist 16.4522
lhand -13.1799 -27.697
lfingers 7.12502
lthumb 12.9198 1.88302
rfemur -2.41713 -1.34436 18.5034
rtibia -3.18055e-015
rfoot -14.3438 -11.176
rtoes -8.59399
lfemur -19.7693 5.56353 -9.16846
ltibia 31.519
lfoot -20.0046 4.21658
ltoes -57.7952
424
root -0.839217 18.6466 6.13157 11.2334 -2.31195 -4.24744
lowerback 11.7982 0.388235 4.5552
upperback -0.056374 1.28567 2.1303
thorax -6.64359 0.513176 -0.542902
lowerneck -6.89629 -1.36015 4.17591
upperneck 13.1887 -1.05092 -9.62296
head 4.99542 -0.92924 -3.76042
rclavicle -3.67752e-015 7.95139e-016
rhumerus -88.3465 11.696 -93.2058
rradius 109.382
rwrist -0.7413
rhand 0.545062 -24.5652
rfingers 7.12502
rthumb 26.1123 -52.7899
lclavicle -3.67752e-015 7.95139e-016
lhumerus -83.9076 -15.6591 104.273
lradius 106.444
lwrist 14.0715
lhand -11.1799 -26.7418
lfingers 7.12502
lthumb 14.8472 2.70627
rfemur -2.86664 -1.3728 18.5963
rtibia -1.59028e-015
rfoot -14.301 -11.1585
rtoes -8.33266
lfemur -20.0578 5.20321 -9.11448
ltibia 31.2768
lfoot -20.3359 4.6729
ltoes -57.6588
425
root -0.82225 18.6466 6.15167 11.5932 -2.08067 -4.37994
lowerback 11.8693 0.430605 4.22128
upperback -0.440177 1.30867 1.99172
thorax -7.09591 0.5211 -0.507001
lowerneck -6.03565 -1.48388 4.34067
upperneck 12.7672 -1.35077 -8.81116
head 4.70356 -0.992686 -3.52842
rclavicle 9.44227e-015 -3.57812e-015
rhumerus -87.6638 6.45957 -91.1367
rradius 109.674
rwrist 1.48884
rhand 0.938149 -25.3805
rfingers 7.12502
rthumb 26.4886 -53.5491
lclavicle 9.44227e-015 -3.57812e-015
lhumerus -82.3534 -10.1555 101.934
lradius 106.678
lwrist 11.543
lhand -8.59743 -25.9909
lfingers 7.12502
lthumb 17.3339 3.25616
rfemur -3.33427 -1.58601 18.7187
rtibia 0.32737
rfoot -14.4346 -11.0356
rtoes -8.45497
lfemur -20.3605 4.77706 -9.00535
ltibia 31.1394
lfoot -20.5052 4.88219
ltoes -57.5711
426
root -0.809788 18.6453 6.16752 11.7992 -1.68698 -4.48726
lowerback 11.9988 0.399343 3.85768
upperback -0.71584 1.22765 1.88624
thorax -7.4721 0.484334 -0.40151
lowerneck -5.42593 -1.61619 3.90705
upperneck 12.4557 -1.62661 -7.6809
head 4.5043 -1.0658 -3.10315
rclavicle -2.98177e-016 -7.35503e-015
rhumerus -87.0573 1.49626 -88.9396
rradius 110.262
rwrist 2.99321
rhand 3.18962 -27.0908
rfingers 7.12502
rthumb 28.6417 -54.9156
lclavicle -2.98177e-016 -7.35503e-015
lhumerus -81.1337 -4.94983 99.9343
lradius 107.27
lwrist 8.60481
lhand -6.24146 -23.9556
lfingers 7.12502
lthumb 19.6002 5.07638
rfemur -3.28858 -1.96536 18.847
rtibia 4.77083e-015
rfoot -14.3415 -11.008
rtoes -7.89066
lfemur -20.6103 4.42728 -8.87111
ltibia 31.0899
lfoot -20.5532 4.85398
ltoes -57.5225
427
root -0.79814 18.6439 6.18004 11.9175 -1.34417 -4.57968
lowerback 12.0234 0.372274 3.53029
upperback -0.837763 1.14314 1.78342
thorax -7.62302 0.450875 -0.311277
lowerneck -4.88451 -1.73484 3.41577
upperneck 12.0923 -1.8765 -6.56995
head 4.30762 -1.13532 -2.67619
rclavicle -1.44119e-015 -2.10712e-014
rhumerus -86.6157 -3.03308 -86.9706
rradius 110.571
rwrist 5.06007
rhand 4.92244 -27.6105
rfingers 7.12502
rthumb 30.296 -55.1438
lclavicle -1.44119e-015 -2.10712e-014
lhumerus -80.0699 -0.348142 98.4294
lradius 107.663
lwrist 7.09119
lhand -4.98779 -22.5937
lfingers 7.12502
lthumb 20.8051 6.31088
rfemur -3.33869 -2.29091 18.9602
rtibia 9.54166e-015
rfoot -14.3154 -10.9279
rtoes -7.52886
lfemur -20.8022 4.22441 -8.77179
ltibia 31.0853
lfoot -20.5176 4.80916
ltoes -57.5395
428
root -0.783116 18.6445 6.19189 11.9133 -1.10814 -4.63884
lowerback 11.9589 0.39362 3.26095
upperback -0.832625 1.12025 1.66387
thorax -7.58315 0.448799 -0.281686
lowerneck -4.37928 -1.89484 2.96377
upperneck 11.7189 -2.16168 -5.64891
head 4.1135 -1.23538 -2.31867
rclavicle 6.01324e-015 7.45443e-015
rhumerus -86.4651 -6.87053 -85.5896
rradius 110.842
rwrist 6.40861
rhand 6.07134 -28.1474
rfingers 7.12502
rthumb 31.3913 -55.4736
lclavicle 6.01324e-015 7.45443e-015
lhumerus -79.0908 2.40623 97.9448
lradius 107.556
lwrist 7.91391
lhand -5.34867 -21.5513
lfingers 7.12502
lthumb 20.4584 7.39091
rfemur -3.27759 -2.51768 19.0019
rtibia -3.18055e-015
rfoot -14.2509 -10.9393
rtoes -7.98945
lfemur -20.8383 4.0676 -8.73827
ltibia 31.0822
lfoot -20.53 4.81903
ltoes -57.5552
429
root -0.766959 18.6437 6.20208 11.7499 -0.915675 -4.6969
lowerback 11.9688 0.469995 3.03537
upperback -0.801842 1.18091 1.55999
thorax -7.55562 0.485777 -0.275888
lowerneck -3.95406 -2.09312 2.57727
upperneck 11.1766 -2.50212 -4.79981
head 4.30135 -1.35155 -2.2084
rclavicle -1.17842e-014 -1.17034e-014
rhumerus -86.5817 -9.52662 -84.9885
rradius 111.025
rwrist 6.79454
rhand 6.7812 -28.9234
rfingers 7.12502
rthumb 32.0674 -56.1158
lclavicle -1.17842e-014 -1.17034e-014
lhumerus -78.6611 2.96359 98.3906
lradius 107.616
lwrist 10.9672
lhand -6.3031 -20.7487
lfingers 7.12502
lthumb 19.541 8.28933
rfemur -3.0363 -2.6997 19.0257
rtibia -7.95139e-015
rfoot -14.2314 -10.9186
rtoes -8.28129
lfemur -20.6665 3.89572 -8.69559
ltibia 31.0615
lfoot -20.6187 4.76816
ltoes -57.4471
430
root -0.753418 18.641 6.20843 11.4397 -0.75772 -4.77864
lowerback 12.1389 0.574426 2.80869
upperback -0.767526 1.28759 1.48686
thorax -7.61549 0.544558 -0.247171
lowerneck -3.66781 -2.26845 2.31953
upperneck 11.1883 -2.75788 -4.37091
head 4.24278 -1.46548 -2.01862
rclavicle -4.04403e-015 -6.33005e-015
rhumerus -86.754 -10.3491 -85.495
rradius 110.934
rwrist 6.57558
rhand 6.51111 -29.6295
rfingers 7.12502
rthumb 31.8102 -56.8733
lclavicle -4.04403e-015 -6.33005e-015
lhumerus -78.6792 1.55329 99.3471
lradius 107.74
lwrist 14.6057
lhand -6.89675 -20.082
lfingers 7.12502
lthumb 18.9701 9.01296
rfemur -2.6343 -2.83928 19.0747
rtibia -9.54166e-015
rfoot -14.2241 -10.8619
rtoes -8.19103
lfemur -20.3184 3.75132 -8.61035
ltibia 31.0322
lfoot -20.6835 4.69621
ltoes -57.3876
431
root -0.740592 18.6394 6.2103 11.0601 -0.574622 -4.84365
lowerback 12.3511 0.624017 2.54098
upperback -0.636884 1.31603 1.4539
thorax -7.6 0.569264 -0.138898
lowerneck -3.90342 -2.35207 2.06066
upperneck 11.449 -2.88913 -3.97579
head 4.38571 -1.52452 -1.85515
rclavicle -6.95746e-016 -2.41523e-014
rhumerus -86.6242 -9.11865 -87.1461
rradius 110.691
rwrist 6.00791
rhand 5.43829 -30.2149
rfingers 7.12502
rthumb 30.7879 -57.6566
lclavicle -6.95746e-016 -2.41523e-014
lhumerus -79.0489 -1.32301 100.55
lradius 107.876
lwrist 16.4613
lhand -7.50533 -19.7182
lfingers 7.12502
lthumb 18.3848 9.43299
rfemur -2.16967 -3.00613 19.1066
rtibia -4.77083e-015
rfoot -14.1597 -10.8445
rtoes -8.18014
lfemur -19.9291 3.59642 -8.5406
ltibia 31.0165
lfoot -20.6892 4.68186
ltoes -57.5043
432
root -0.72319 18.6393 6.20909 10.707 -0.274467 -4.8606
lowerback 12.4317 0.581464 2.29325
upperback -0.39124 1.21648 1.42538
thorax -7.3883 0.533429 -0.011294
lowerneck -4.54199 -2.36595 1.80782
upperneck 11.7617 -2.93772 -3.52827
head 4.6353 -1.54189 -1.68224
rclavicle 5.98839e-015 -4.37326e-015
rhumerus -86.2419 -6.58585 -89.2194
rradius 110.737
rwrist 5.27642
rhand 4.75479 -31.0867
rfingers 7.12502
rthumb 30.1361 -58.6493
lclavicle 5.98839e-015 -4.37326e-015
lhumerus -79.8143 -5.6819 102.074
lradius 107.952
lwrist 16.3817
lhand -8.77932 -20.343
lfingers 7.12502
lthumb 17.1589 8.9193
rfemur -1.74746 -3.30039 19.0798
rtibia 6.36111e-015
rfoot -14.0897 -10.8536
rtoes -8.0506
lfemur -19.6302 3.32406 -8.5268
ltibia 31.0126
lfoot -20.6827 4.67086
ltoes -57.5724
433
root -0.703293 18.6394 6.20574 10.4012 0.0937213 -4.88905
lowerback 12.3217 0.483187 2.10686
upperback -0.0736561 1.04402 1.39313
thorax -6.99154 0.460884 0.0931101
lowerneck -5.18356 -2.36321 1.73188
upperneck 12.3194 -2.94908 -3.29606
head 4.45872 -1.55659 -1.45215
rclavicle 4.96962e-017 7.45443e-015
rhumerus -86.1833 -2.30106 -91.754
rradius 110.221
rwrist 4.437
rhand 2.67398 -30.8242
rfingers 7.12502
rthumb 28.149 -58.7312
lclavicle 4.96962e-017 7.45443e-015
lhumerus -80.8063 -10.6618 103.604
lradius 108.125
lwrist 15.3539
lhand -9.89745 -21.5928
lfingers 7.12502
lthumb 16.0824 7.7598
rfemur -1.38886 -3.66107 19.0587
rtibia -6.36111e-015
rfoot -13.9601 -10.8719
rtoes -8.05449
lfemur -19.4161 2.95362 -8.49814
ltibia 31.0095
lfoot -20.6735 4.64211
ltoes -57.5134
434
root -0.686127 18.6374 6.20139 9.70569 0.308436 -5.00492
lowerback 12.5505 0.435325 1.90955
upperback 0.394811 0.949286 1.42552
thorax -6.62618 0.426378 0.254408
lowerneck -6.0215 -2.36055 1.69891
upperneck 12.6272 -2.9833 -3.00633
head 4.69898 -1.5633 -1.37659
rclavicle -7.60351e-015 -8.54774e-015
rhumerus -86.3795 2.3207 -93.8342
rradius 109.527
rwrist 5.63809
rhand -0.625192 -28.6387
rfingers 7.12502
rthumb 24.9914 -57.0241
lclavicle -7.60351e-015 -8.54774e-015
lhumerus -82.024 -16.2205 105.358
lradius 108.284
lwrist 14.6047
lhand -10.9619 -22.9296
lfingers 7.12502
lthumb 15.0572 6.50281
rfemur -0.611257 -3.84852 19.0779
rtibia 3.18055e-015
rfoot -13.7368 -10.8646
rtoes -8.31576
lfemur -18.7165 2.64223 -8.37155
ltibia 30.9963
lfoot -20.7354 4.6025
ltoes -57.4639
435
root -0.668483 18.6355 6.20551 9.06186 0.239355 -5.14215
lowerback 12.4967 0.448611 1.67058
upperback 0.78869 0.927313 1.51319
thorax -6.1832 0.428103 0.486412
lowerneck -6.50399 -2.32819 1.46488
upperneck 12.9911 -2.95596 -2.68131
head 4.9025 -1.54352 -1.24875
rclavicle -5.36719e-015 -1.59028e-015
rhumerus -87.0471 7.23935 -95.1086
rradius 109.716
rwrist 5.11343
rhand -1.59042 -27.0796
rfingers 7.12502
rthumb 24.0662 -55.5905
lclavicle -5.36719e-015 -1.59028e-015
lhumerus -83.6878 -21.5652 107.358
lradius 108.362
lwrist 14.2872
lhand -11.7761 -23.9548
lfingers 7.12502
lthumb 14.2728 5.53473
rfemur 0.103268 -3.75447 19.0643
rtibia 4.77083e-015
rfoot -13.5125 -10.847
rtoes -8.51549
lfemur -17.9558 2.54333 -8.27357
ltibia 30.983
lfoot -20.8602 4.60981
ltoes -57.4593
436
root -0.648389 18.6346 6.20621 8.53635 0.17982 -5.24862
lowerback 12.2284 0.418269 1.4025
upperback 1.32763 0.836132 1.61108
thorax -5.4696 0.395894 0.758414
lowerneck -7.72687 -2.25303 1.36208
upperneck 13.7176 -2.87564 -2.46436
head 5.34217 -1.50034 -1.1874
rclavicle -1.54058e-015 -2.98177e-015
rhumerus -87.902 12.7395 -96.5158
rradius 109.274
rwrist 4.16149
rhand -3.2891 -24.8751
rfingers 7.12502
rthumb 22.4365 -53.5919
lclavicle -1.54058e-015 -2.98177e-015
lhumerus -85.1949 -26.4754 109.315
lradius 108.155
lwrist 14.5776
lhand -12.6539 -25.0533
lfingers 7.12502
lthumb 13.4268 4.494
rfemur 0.667858 -3.67699 19.0123
rtibia 2.06736e-014
rfoot -13.3254 -10.8575
rtoes -8.67754
lfemur -17.3443 2.42114 -8.2173
ltibia 30.9608
lfoot -20.932 4.62284
ltoes -57.4511
437
root -0.624487 18.6358 6.19999 8.18076 0.121154 -5.36708
lowerback 11.7523 0.500658 1.25061
upperback 1.82369 0.901155 1.58728
thorax -4.68613 0.434195 0.812551
lowerneck -8.98643 -2.30946 1.8236
upperneck 14.5745 -3.03122 -2.42891
head 5.81533 -1.55229 -1.29338
rclavicle 1.17283e-014 2.38542e-015
rhumerus -88.8873 17.3254 -97.8924
rradius 109.189
rwrist 2.67461
rhand -4.75989 -23.9149
rfingers 7.12502
rthumb 21.0241 -52.7953
lclavicle 1.17283e-014 2.38542e-015
lhumerus -87.1556 -31.1276 111.386
lradius 107.62
lwrist 15.7068
lhand -13.7956 -27.036
lfingers 7.12502
lthumb 12.3262 2.58069
rfemur 1.01065 -3.60098 18.9721
rtibia 1.11319e-014
rfoot -13.0726 -10.9008
rtoes -8.97457
lfemur -16.9602 2.32398 -8.15888
ltibia 30.9475
lfoot -20.9599 4.66119
ltoes -57.4266
